<mxfile host="app.diagrams.net" modified="2023-12-12T06:29:51.724Z" agent="Mozilla/5.0 (Windows NT 10.0; Win64; x64) AppleWebKit/537.36 (KHTML, like Gecko) Chrome/120.0.0.0 Safari/537.36" version="22.1.7" etag="s_ih6DLfiSFPDVDmpWZb" type="github">
  <diagram name="Страница — 1" id="yO3hjpK3_DJJT4j6Q01j">
    <mxGraphModel>
      <root>
        <mxCell id="0" />
        <mxCell id="1" parent="0" />
      </root>
    </mxGraphModel>
  </diagram>
</mxfile>
